REM DIRINDEX 1\2\4\18,1\2\4\19,1\2\5\20,1\2\5\21,1\2\6\22,1\2\6\23,1\2\7\24,1\2\7\25,1\2\8\26,1\2\8\27,1\2\9\28,1\2\9\29,1\2\10\30,1\3\11\31,1\3\11\32,1\3\11\33,1\3\11\34,1\3\11\35,1\3\12\36,1\3\12\37,1\3\12\38,1\3\12\39,1\3\12\40,1\3\13\41,1\3\13\42,1\3\13\43,1\3\13\44,1\3\13\45,1\3\14\46,1\3\14\47,1\3\14\48,1\3\14\49,1\3\15\50,1\3\15\51,1\3\15\52,1\3\15\53,1\3\15\54,1\3\16\55,1\3\16\56,1\3\16\57,1\3\16\58,1\3\16\59,1\3\17\60,1\3\17\61
REM DIRNAME "folder01","folder02","folder03","folder04","folder05","folder06","folder07","folder08","folder09","folder10","folder11","folder12","folder13","folder14","folder15","folder16","folder17","folder18","folder19","folder20","folder21","folder22","folder23","folder24","folder25","folder26","folder27","folder28","folder29","folder30","folder31","folder32","folder33","folder34","folder35","folder36","folder37","folder38","folder39","folder40","folder41","folder42","folder43","folder44","folder45","folder46","folder47","folder48","folder49","folder50","folder51","folder52","folder53","folder54","folder55","folder56","folder57","folder58","folder59","folder60","folder61"
TITLE ""
FILE "TOEIC LR Kinnojyukugo_06.mp3" MP3
  TRACK 01 AUDIO
    TITLE "0:"
    INDEX 01 00:00:00
  TRACK 02 AUDIO
    TITLE "55:cjc160_3404"
    INDEX 01 00:00:12
  TRACK 03 AUDIO
    TITLE "0:"
    INDEX 01 00:01:25
  TRACK 04 AUDIO
    TITLE "56:cjc160_3405"
    INDEX 01 00:01:61
  TRACK 05 AUDIO
    TITLE "0:"
    INDEX 01 00:02:56
  TRACK 06 AUDIO
    TITLE "57:cjc160_3406"
    INDEX 01 00:03:20
  TRACK 07 AUDIO
    TITLE "0:"
    INDEX 01 00:05:51
  TRACK 08 AUDIO
    TITLE "58:cjc160_3407"
    INDEX 01 00:06:11
  TRACK 09 AUDIO
    TITLE "0:"
    INDEX 01 00:08:18
  TRACK 10 AUDIO
    TITLE "59:cjc160_3408"
    INDEX 01 00:08:41
  TRACK 11 AUDIO
    TITLE "0:"
    INDEX 01 00:10:46
  TRACK 12 AUDIO
    TITLE "55:cjc160_3409"
    INDEX 01 00:11:47
  TRACK 13 AUDIO
    TITLE "0:"
    INDEX 01 00:12:61
  TRACK 14 AUDIO
    TITLE "56:cjc160_3410"
    INDEX 01 00:13:21
  TRACK 15 AUDIO
    TITLE "0:"
    INDEX 01 00:15:73
  TRACK 16 AUDIO
    TITLE "57:cjc160_3411"
    INDEX 01 00:16:33
  TRACK 17 AUDIO
    TITLE "0:"
    INDEX 01 00:19:15
  TRACK 18 AUDIO
    TITLE "58:cjc160_3412"
    INDEX 01 00:19:55
  TRACK 19 AUDIO
    TITLE "0:"
    INDEX 01 00:22:33
  TRACK 20 AUDIO
    TITLE "59:cjc160_3413"
    INDEX 01 00:22:57
  TRACK 21 AUDIO
    TITLE "0:"
    INDEX 01 00:25:36
  TRACK 22 AUDIO
    TITLE "55:cjc160_3414"
    INDEX 01 00:26:39
  TRACK 23 AUDIO
    TITLE "0:"
    INDEX 01 00:27:40
  TRACK 24 AUDIO
    TITLE "56:cjc160_3415"
    INDEX 01 00:28:03
  TRACK 25 AUDIO
    TITLE "0:"
    INDEX 01 00:28:63
  TRACK 26 AUDIO
    TITLE "57:cjc160_3416"
    INDEX 01 00:29:28
  TRACK 27 AUDIO
    TITLE "0:"
    INDEX 01 00:31:50
  TRACK 28 AUDIO
    TITLE "58:cjc160_3417"
    INDEX 01 00:32:16
  TRACK 29 AUDIO
    TITLE "0:"
    INDEX 01 00:34:43
  TRACK 30 AUDIO
    TITLE "59:cjc160_3418"
    INDEX 01 00:34:66
  TRACK 31 AUDIO
    TITLE "0:"
    INDEX 01 00:37:15
  TRACK 32 AUDIO
    TITLE "55:cjc160_3419"
    INDEX 01 00:38:17
  TRACK 33 AUDIO
    TITLE "0:"
    INDEX 01 00:39:38
  TRACK 34 AUDIO
    TITLE "56:cjc160_3420"
    INDEX 01 00:40:00
  TRACK 35 AUDIO
    TITLE "0:"
    INDEX 01 00:40:71
  TRACK 36 AUDIO
    TITLE "57:cjc160_3421"
    INDEX 01 00:41:33
  TRACK 37 AUDIO
    TITLE "0:"
    INDEX 01 00:43:51
  TRACK 38 AUDIO
    TITLE "58:cjc160_3422"
    INDEX 01 00:44:15
  TRACK 39 AUDIO
    TITLE "0:"
    INDEX 01 00:47:12
  TRACK 40 AUDIO
    TITLE "59:cjc160_3423"
    INDEX 01 00:47:35
  TRACK 41 AUDIO
    TITLE "0:"
    INDEX 01 00:50:32
  TRACK 42 AUDIO
    TITLE "55:cjc160_3424"
    INDEX 01 00:51:29
  TRACK 43 AUDIO
    TITLE "0:"
    INDEX 01 00:52:33
  TRACK 44 AUDIO
    TITLE "56:cjc160_3425"
    INDEX 01 00:52:72
  TRACK 45 AUDIO
    TITLE "0:"
    INDEX 01 00:54:14
  TRACK 46 AUDIO
    TITLE "57:cjc160_3426"
    INDEX 01 00:54:53
  TRACK 47 AUDIO
    TITLE "0:"
    INDEX 01 00:56:70
  TRACK 48 AUDIO
    TITLE "58:cjc160_3427"
    INDEX 01 00:57:36
  TRACK 49 AUDIO
    TITLE "0:"
    INDEX 01 00:59:23
  TRACK 50 AUDIO
    TITLE "59:cjc160_3428"
    INDEX 01 00:59:48
  TRACK 51 AUDIO
    TITLE "0:"
    INDEX 01 01:01:39
  TRACK 52 AUDIO
    TITLE "55:cjc160_3429"
    INDEX 01 01:02:35
  TRACK 53 AUDIO
    TITLE "0:"
    INDEX 01 01:03:32
  TRACK 54 AUDIO
    TITLE "56:cjc160_3430"
    INDEX 01 01:03:66
  TRACK 55 AUDIO
    TITLE "0:"
    INDEX 01 01:04:67
  TRACK 56 AUDIO
    TITLE "57:cjc160_3431"
    INDEX 01 01:05:27
  TRACK 57 AUDIO
    TITLE "0:"
    INDEX 01 01:07:38
  TRACK 58 AUDIO
    TITLE "58:cjc160_3432"
    INDEX 01 01:08:00
  TRACK 59 AUDIO
    TITLE "0:"
    INDEX 01 01:10:13
  TRACK 60 AUDIO
    TITLE "59:cjc160_3433"
    INDEX 01 01:10:38
  TRACK 61 AUDIO
    TITLE "0:"
    INDEX 01 01:12:51
  TRACK 62 AUDIO
    TITLE "55:cjc160_3434"
    INDEX 01 01:13:50
  TRACK 63 AUDIO
    TITLE "0:"
    INDEX 01 01:15:06
  TRACK 64 AUDIO
    TITLE "56:cjc160_3435"
    INDEX 01 01:15:47
  TRACK 65 AUDIO
    TITLE "0:"
    INDEX 01 01:16:72
  TRACK 66 AUDIO
    TITLE "57:cjc160_3436"
    INDEX 01 01:17:34
  TRACK 67 AUDIO
    TITLE "0:"
    INDEX 01 01:20:23
  TRACK 68 AUDIO
    TITLE "58:cjc160_3437"
    INDEX 01 01:20:74
  TRACK 69 AUDIO
    TITLE "0:"
    INDEX 01 01:24:25
  TRACK 70 AUDIO
    TITLE "59:cjc160_3438"
    INDEX 01 01:24:50
  TRACK 71 AUDIO
    TITLE "0:"
    INDEX 01 01:28:01
  TRACK 72 AUDIO
    TITLE "55:cjc160_3439"
    INDEX 01 01:29:00
  TRACK 73 AUDIO
    TITLE "0:"
    INDEX 01 01:30:06
  TRACK 74 AUDIO
    TITLE "56:cjc160_3440"
    INDEX 01 01:30:53
  TRACK 75 AUDIO
    TITLE "0:"
    INDEX 01 01:32:07
  TRACK 76 AUDIO
    TITLE "57:cjc160_3441"
    INDEX 01 01:32:46
  TRACK 77 AUDIO
    TITLE "0:"
    INDEX 01 01:35:30
  TRACK 78 AUDIO
    TITLE "58:cjc160_3442"
    INDEX 01 01:35:68
  TRACK 79 AUDIO
    TITLE "0:"
    INDEX 01 01:37:61
  TRACK 80 AUDIO
    TITLE "59:cjc160_3443"
    INDEX 01 01:38:17
  TRACK 81 AUDIO
    TITLE "0:"
    INDEX 01 01:40:10
  TRACK 82 AUDIO
    TITLE "55:cjc160_3444"
    INDEX 01 01:41:17
  TRACK 83 AUDIO
    TITLE "0:"
    INDEX 01 01:42:25
  TRACK 84 AUDIO
    TITLE "56:cjc160_3445"
    INDEX 01 01:42:62
  TRACK 85 AUDIO
    TITLE "0:"
    INDEX 01 01:43:73
  TRACK 86 AUDIO
    TITLE "57:cjc160_3446"
    INDEX 01 01:44:39
  TRACK 87 AUDIO
    TITLE "0:"
    INDEX 01 01:47:47
  TRACK 88 AUDIO
    TITLE "58:cjc160_3447"
    INDEX 01 01:48:06
  TRACK 89 AUDIO
    TITLE "0:"
    INDEX 01 01:50:54
  TRACK 90 AUDIO
    TITLE "59:cjc160_3448"
    INDEX 01 01:50:73
  TRACK 91 AUDIO
    TITLE "0:"
    INDEX 01 01:53:46
  TRACK 92 AUDIO
    TITLE "55:cjc160_3449"
    INDEX 01 01:54:45
  TRACK 93 AUDIO
    TITLE "0:"
    INDEX 01 01:56:05
  TRACK 94 AUDIO
    TITLE "56:cjc160_3450"
    INDEX 01 01:56:42
  TRACK 95 AUDIO
    TITLE "0:"
    INDEX 01 01:57:63
  TRACK 96 AUDIO
    TITLE "57:cjc160_3451"
    INDEX 01 01:58:28
  TRACK 97 AUDIO
    TITLE "0:"
    INDEX 01 02:00:62
  TRACK 98 AUDIO
    TITLE "58:cjc160_3452"
    INDEX 01 02:01:24
  TRACK 99 AUDIO
    TITLE "0:"
    INDEX 01 02:03:54
  TRACK 100 AUDIO
    TITLE "59:cjc160_3453"
    INDEX 01 02:04:03
  TRACK 101 AUDIO
    TITLE "0:"
    INDEX 01 02:06:31
  TRACK 102 AUDIO
    TITLE "55:cjc160_3454"
    INDEX 01 02:07:30
  TRACK 103 AUDIO
    TITLE "0:"
    INDEX 01 02:08:34
  TRACK 104 AUDIO
    TITLE "56:cjc160_3455"
    INDEX 01 02:08:71
  TRACK 105 AUDIO
    TITLE "0:"
    INDEX 01 02:09:59
  TRACK 106 AUDIO
    TITLE "57:cjc160_3456"
    INDEX 01 02:10:21
  TRACK 107 AUDIO
    TITLE "0:"
    INDEX 01 02:12:69
  TRACK 108 AUDIO
    TITLE "58:cjc160_3457"
    INDEX 01 02:13:35
  TRACK 109 AUDIO
    TITLE "0:"
    INDEX 01 02:16:08
  TRACK 110 AUDIO
    TITLE "59:cjc160_3458"
    INDEX 01 02:16:35
  TRACK 111 AUDIO
    TITLE "0:"
    INDEX 01 02:19:08
